<svg xmlns="http://www.w3.org/2000/svg" xmlns:xlink="http://www.w3.org/1999/xlink" width="500" zoomAndPan="magnify" viewBox="0 0 375 374.999991" height="500" preserveAspectRatio="xMidYMid meet" version="1.0"><defs><clipPath id="c4dcfd7fd5"><path d="M 137 96 L 238 96 L 238 230.113281 L 137 230.113281 Z M 137 96 " clip-rule="nonzero"/></clipPath><clipPath id="53e4fea6c0"><path d="M 124.832031 83.863281 L 250.082031 83.863281 L 250.082031 230.113281 L 124.832031 230.113281 Z M 124.832031 83.863281 " clip-rule="nonzero"/></clipPath></defs><g clip-path="url(#c4dcfd7fd5)"><path fill="#000000" d="M 187.457031 96.398438 C 185.816406 96.398438 184.183594 96.480469 182.550781 96.644531 C 180.921875 96.808594 179.304688 97.050781 177.695312 97.371094 C 176.089844 97.691406 174.503906 98.09375 172.933594 98.570312 C 171.367188 99.046875 169.828125 99.601562 168.3125 100.230469 C 166.800781 100.859375 165.320312 101.5625 163.875 102.335938 C 162.429688 103.109375 161.027344 103.953125 159.664062 104.867188 C 158.304688 105.777344 156.988281 106.757812 155.722656 107.796875 C 154.457031 108.839844 153.242188 109.941406 152.085938 111.101562 C 150.925781 112.261719 149.828125 113.476562 148.789062 114.746094 C 147.75 116.015625 146.773438 117.332031 145.863281 118.699219 C 144.953125 120.0625 144.109375 121.46875 143.335938 122.917969 C 142.5625 124.363281 141.863281 125.847656 141.234375 127.363281 C 140.609375 128.878906 140.054688 130.421875 139.578125 131.992188 C 139.101562 133.566406 138.703125 135.15625 138.382812 136.765625 C 138.0625 138.375 137.820312 139.996094 137.65625 141.628906 C 137.496094 143.265625 137.414062 144.902344 137.410156 146.542969 L 137.410156 230.136719 L 141.585938 230.136719 L 141.585938 198.777344 L 185.371094 198.777344 L 185.371094 230.136719 L 189.535156 230.136719 L 189.535156 198.777344 L 233.328125 198.777344 L 233.328125 230.136719 L 237.496094 230.136719 L 237.496094 146.542969 C 237.492188 144.902344 237.410156 143.265625 237.25 141.632812 C 237.085938 139.996094 236.84375 138.375 236.523438 136.765625 C 236.203125 135.15625 235.804688 133.566406 235.328125 131.996094 C 234.851562 130.425781 234.300781 128.878906 233.671875 127.363281 C 233.042969 125.847656 232.34375 124.367188 231.570312 122.917969 C 230.796875 121.46875 229.957031 120.0625 229.042969 118.699219 C 228.132812 117.335938 227.160156 116.019531 226.121094 114.75 C 225.082031 113.480469 223.980469 112.265625 222.824219 111.105469 C 221.664062 109.941406 220.453125 108.839844 219.1875 107.800781 C 217.917969 106.757812 216.605469 105.78125 215.242188 104.867188 C 213.882812 103.957031 212.476562 103.113281 211.035156 102.335938 C 209.589844 101.5625 208.109375 100.859375 206.597656 100.230469 C 205.082031 99.601562 203.542969 99.050781 201.976562 98.570312 C 200.40625 98.09375 198.820312 97.695312 197.214844 97.371094 C 195.609375 97.050781 193.988281 96.808594 192.359375 96.644531 C 190.730469 96.484375 189.09375 96.398438 187.457031 96.398438 Z M 187.457031 100.578125 C 188.667969 100.582031 189.878906 100.632812 191.089844 100.726562 C 192.296875 100.824219 193.5 100.972656 194.699219 101.164062 C 195.898438 101.355469 197.085938 101.597656 198.265625 101.882812 C 199.441406 102.171875 200.609375 102.503906 201.761719 102.886719 C 202.914062 103.265625 204.046875 103.691406 205.167969 104.160156 C 206.285156 104.628906 207.382812 105.144531 208.460938 105.699219 C 209.539062 106.257812 210.59375 106.855469 211.625 107.496094 C 212.65625 108.136719 213.660156 108.816406 214.636719 109.539062 C 215.613281 110.257812 216.5625 111.015625 217.480469 111.8125 C 218.394531 112.609375 219.28125 113.4375 220.132812 114.304688 C 220.984375 115.171875 221.800781 116.066406 222.582031 117 C 223.359375 117.929688 224.101562 118.890625 224.808594 119.878906 C 225.511719 120.867188 226.175781 121.882812 226.800781 122.925781 C 227.425781 123.96875 228.007812 125.03125 228.546875 126.121094 C 229.089844 127.210938 229.585938 128.316406 230.039062 129.445312 C 230.492188 130.574219 230.898438 131.71875 231.261719 132.878906 L 141.585938 192.78125 L 141.585938 146.542969 C 141.585938 145.039062 141.660156 143.539062 141.808594 142.039062 C 141.957031 140.542969 142.179688 139.054688 142.472656 137.582031 C 142.769531 136.105469 143.132812 134.648438 143.570312 133.207031 C 144.007812 131.765625 144.515625 130.351562 145.089844 128.960938 C 145.664062 127.570312 146.308594 126.214844 147.015625 124.886719 C 147.722656 123.558594 148.496094 122.269531 149.332031 121.019531 C 150.164062 119.769531 151.058594 118.5625 152.011719 117.398438 C 152.964844 116.234375 153.972656 115.121094 155.035156 114.058594 C 156.097656 112.992188 157.207031 111.984375 158.367188 111.027344 C 159.53125 110.074219 160.734375 109.179688 161.984375 108.339844 C 163.230469 107.503906 164.519531 106.730469 165.84375 106.023438 C 167.167969 105.3125 168.523438 104.667969 169.910156 104.09375 C 171.296875 103.515625 172.707031 103.007812 174.144531 102.570312 C 175.582031 102.132812 177.039062 101.765625 178.511719 101.472656 C 179.984375 101.175781 181.464844 100.953125 182.960938 100.804688 C 184.457031 100.65625 185.953125 100.582031 187.457031 100.578125 Z M 146.386719 194.597656 L 185.390625 168.558594 L 185.390625 194.597656 Z M 189.539062 194.597656 L 189.539062 165.773438 L 232.363281 137.164062 C 233.007812 140.257812 233.328125 143.382812 233.328125 146.542969 L 233.328125 194.597656 Z M 189.539062 194.597656 " fill-opacity="1" fill-rule="nonzero"/></g><g clip-path="url(#53e4fea6c0)"><path fill="#000000" d="M 187.457031 83.863281 C 185.40625 83.867188 183.363281 83.96875 181.328125 84.171875 C 179.289062 84.375 177.265625 84.679688 175.257812 85.082031 C 173.25 85.480469 171.265625 85.980469 169.304688 86.578125 C 167.34375 87.175781 165.421875 87.867188 163.527344 88.652344 C 161.636719 89.441406 159.789062 90.316406 157.980469 91.285156 C 156.175781 92.253906 154.421875 93.308594 152.71875 94.449219 C 151.015625 95.589844 149.375 96.8125 147.789062 98.113281 C 146.207031 99.414062 144.691406 100.792969 143.242188 102.242188 C 141.796875 103.695312 140.421875 105.210938 139.121094 106.796875 C 137.824219 108.386719 136.605469 110.03125 135.464844 111.738281 C 134.328125 113.441406 133.273438 115.199219 132.308594 117.011719 C 131.34375 118.820312 130.46875 120.671875 129.683594 122.566406 C 128.898438 124.464844 128.207031 126.394531 127.609375 128.355469 C 127.015625 130.320312 126.515625 132.308594 126.117188 134.320312 C 125.714844 136.332031 125.414062 138.359375 125.210938 140.402344 C 125.007812 142.445312 124.90625 144.492188 124.902344 146.542969 L 124.902344 230.136719 L 129.070312 230.136719 L 129.070312 146.542969 C 129.050781 144.617188 129.128906 142.691406 129.296875 140.773438 C 129.46875 138.851562 129.734375 136.945312 130.09375 135.050781 C 130.453125 133.15625 130.90625 131.285156 131.449219 129.433594 C 131.992188 127.585938 132.625 125.769531 133.351562 123.980469 C 134.074219 122.195312 134.882812 120.449219 135.777344 118.742188 C 136.671875 117.035156 137.652344 115.378906 138.710938 113.769531 C 139.769531 112.15625 140.90625 110.605469 142.117188 109.109375 C 143.332031 107.609375 144.613281 106.175781 145.96875 104.808594 C 147.320312 103.4375 148.738281 102.136719 150.222656 100.90625 C 151.703125 99.679688 153.242188 98.527344 154.839844 97.449219 C 156.433594 96.371094 158.078125 95.375 159.773438 94.460938 C 161.46875 93.546875 163.203125 92.71875 164.976562 91.976562 C 166.753906 91.234375 168.5625 90.582031 170.402344 90.019531 C 172.242188 89.457031 174.105469 88.984375 175.992188 88.609375 C 177.878906 88.230469 179.78125 87.945312 181.695312 87.753906 C 183.609375 87.566406 185.527344 87.46875 187.453125 87.46875 C 189.378906 87.46875 191.296875 87.566406 193.210938 87.753906 C 195.125 87.945312 197.027344 88.230469 198.914062 88.609375 C 200.800781 88.984375 202.664062 89.457031 204.503906 90.019531 C 206.34375 90.582031 208.152344 91.234375 209.929688 91.976562 C 211.703125 92.71875 213.4375 93.546875 215.132812 94.460938 C 216.828125 95.375 218.472656 96.371094 220.066406 97.449219 C 221.664062 98.527344 223.203125 99.679688 224.683594 100.90625 C 226.167969 102.136719 227.585938 103.4375 228.9375 104.808594 C 230.292969 106.175781 231.574219 107.609375 232.789062 109.109375 C 234 110.605469 235.136719 112.15625 236.195312 113.769531 C 237.253906 115.378906 238.230469 117.035156 239.128906 118.742188 C 240.023438 120.449219 240.832031 122.195312 241.554688 123.980469 C 242.28125 125.769531 242.914062 127.585938 243.457031 129.433594 C 244 131.285156 244.453125 133.15625 244.8125 135.050781 C 245.171875 136.945312 245.4375 138.851562 245.605469 140.773438 C 245.777344 142.691406 245.855469 144.617188 245.835938 146.542969 L 245.835938 230.136719 L 250.007812 230.136719 L 250.007812 146.542969 C 250.007812 144.492188 249.902344 142.445312 249.699219 140.402344 C 249.5 138.359375 249.195312 136.332031 248.792969 134.320312 C 248.394531 132.308594 247.894531 130.320312 247.300781 128.355469 C 246.703125 126.394531 246.011719 124.464844 245.226562 122.570312 C 244.441406 120.671875 243.566406 118.820312 242.601562 117.011719 C 241.636719 115.203125 240.582031 113.445312 239.445312 111.738281 C 238.304688 110.03125 237.085938 108.386719 235.789062 106.800781 C 234.488281 105.214844 233.113281 103.695312 231.667969 102.246094 C 230.21875 100.792969 228.703125 99.417969 227.121094 98.113281 C 225.535156 96.8125 223.894531 95.589844 222.191406 94.449219 C 220.488281 93.308594 218.734375 92.253906 216.929688 91.289062 C 215.121094 90.320312 213.273438 89.441406 211.382812 88.65625 C 209.492188 87.867188 207.566406 87.175781 205.605469 86.578125 C 203.644531 85.984375 201.664062 85.484375 199.652344 85.082031 C 197.644531 84.679688 195.621094 84.375 193.585938 84.171875 C 191.546875 83.96875 189.503906 83.867188 187.457031 83.863281 Z M 187.457031 83.863281 " fill-opacity="1" fill-rule="nonzero"/></g></svg>