<svg xmlns="http://www.w3.org/2000/svg" version="1.1" xmlns:xlink="http://www.w3.org/1999/xlink" xmlns:svgjs="http://svgjs.dev/svgjs" width="1000" height="1000" viewBox="0 0 1000 1000"><rect width="1000" height="1000" fill="#ffffff"></rect><g transform="matrix(0.7,0,0,0.7,150,281.25)"><svg viewBox="0 0 512 320" data-background-color="#ffffff" preserveAspectRatio="xMidYMid meet" height="625" width="1000" xmlns="http://www.w3.org/2000/svg" xmlns:xlink="http://www.w3.org/1999/xlink"><g id="tight-bounds" transform="matrix(1,0,0,1,0,0)"><svg viewBox="0 0 512 320" height="320" width="512"><g><svg></svg></g><g><svg viewBox="0 0 512 320" height="320" width="512"><g><path xmlns="http://www.w3.org/2000/svg" d="M96 160c0-88.366 71.634-160 160-160 88.366 0 160 71.634 160 160 0 88.366-71.634 160-160 160-88.366 0-160-71.634-160-160z" fill="#000000" fill-rule="nonzero" stroke="none" stroke-width="1" stroke-linecap="butt" stroke-linejoin="miter" stroke-miterlimit="10" stroke-dasharray="" stroke-dashoffset="0" font-family="none" font-weight="none" font-size="none" text-anchor="none" style="mix-blend-mode: normal" data-fill-palette-color="tertiary"></path></g><g transform="matrix(1,0,0,1,153.6,127.36485130630345)"><svg viewBox="0 0 204.8 65.27029738739311" height="65.27029738739311" width="204.8"><g><svg viewBox="0 0 329.16523509896695 104.90582414307002" height="65.27029738739311" width="204.8"><g><rect width="2.9018900598162234" height="104.90582414307002" x="113.86677420193546" y="0" fill="#000000" opacity="1" stroke-width="0" stroke="transparent" fill-opacity="1" class="rect-o-0" data-fill-palette-color="primary" rx="1%" id="o-0" data-palette-color="#6b7280"></rect></g><g transform="matrix(1,0,0,1,124.36523509896692,0.26095976154991973)"><svg viewBox="0 0 204.8 104.38390461997018" height="104.38390461997018" width="204.8"><g id="textblocktransform"><svg viewBox="0 0 204.8 104.38390461997018" height="104.38390461997018" width="204.8" id="textblock"><g><svg viewBox="0 0 204.8 104.38390461997018" height="104.38390461997018" width="204.8"><g transform="matrix(1,0,0,1,0,0)"><svg width="204.8" viewBox="0.4500007629394531 -35.90000534057617 234.84999084472656 116.70001220703125" height="104.38390461997018" data-palette-color="#ffffff"><svg></svg><svg></svg><svg></svg><g class="wordmark-text-0" data-fill-palette-color="quaternary" id="text-0"><path xmlns="http://www.w3.org/2000/svg" d="M36.05-1.4v1.4h-12.8v-1.4h1.6c1.467 0 2.2-0.467 2.2-1.4v0c0-0.133-0.167-0.7-0.5-1.7v0l-3.4-8.9h-12.6l-3.3 8.5c0 0.067-0.117 0.473-0.35 1.22-0.233 0.753-0.35 1.27-0.35 1.55 0 0.287 0.183 0.48 0.55 0.58 0.367 0.1 1.15 0.15 2.35 0.15v0h0.8v1.4h-9.8v-1.4h0.7c1.1 0 1.9-0.193 2.4-0.58 0.5-0.38 0.933-1.02 1.3-1.92v0l11-28.7c0.167-0.033 0.467-0.277 0.9-0.73 0.433-0.447 0.833-0.913 1.2-1.4 0.367-0.48 0.55-0.753 0.55-0.82 0-0.067-0.017-0.117-0.05-0.15v0l0.7-0.2 12.3 32.2c0.367 0.767 0.743 1.34 1.13 1.72 0.38 0.387 0.937 0.58 1.67 0.58v0zM11.35-15.5h10.9l-5.4-14.3zM38.55-35h7.7l9.5-0.5c2.933 0 5.333 0.617 7.2 1.85 1.867 1.233 2.8 2.917 2.8 5.05v0c0 2.967-0.8 5.383-2.4 7.25-1.6 1.867-3.567 3.283-5.9 4.25v0l8.1 12.2c0.333 0.533 0.977 1.25 1.93 2.15 0.947 0.9 1.803 1.35 2.57 1.35v0h0.9v1.4h-7.4c0.1 0-0.217-0.5-0.95-1.5-0.733-1-1.15-1.6-1.25-1.8v0l-8.3-12.8c-0.333 0.067-1 0.1-2 0.1-1 0-1.8-0.033-2.4-0.1v0l-0.4-2c0.467 0.067 1.467 0.1 3 0.1 1.533 0 3.067-0.2 4.6-0.6 1.533-0.4 2.883-1.16 4.05-2.28 1.167-1.113 1.75-2.553 1.75-4.32v0c0-4.933-3.167-7.4-9.5-7.4v0l-5.2 0.2v28.7c0 0.5 0.033 0.883 0.1 1.15 0.067 0.267 0.283 0.523 0.65 0.77 0.367 0.253 0.917 0.38 1.65 0.38v0h1.9v1.4h-12.7v-1.4h1.6c0.733 0 1.283-0.127 1.65-0.38 0.367-0.247 0.583-0.503 0.65-0.77 0.067-0.267 0.1-0.65 0.1-1.15v0-27.6c0-0.767-0.157-1.327-0.47-1.68-0.32-0.347-0.963-0.52-1.93-0.52v0h-1.6zM86.55-1.4v1.4h-12.7v-1.4h1.7c1 0 1.65-0.2 1.95-0.6 0.3-0.4 0.45-0.967 0.45-1.7v0-27.6c0-0.733-0.15-1.3-0.45-1.7-0.3-0.4-0.95-0.6-1.95-0.6v0h-1.7v-1.4h12.7v1.4h-1.9c-1 0-1.65 0.2-1.95 0.6-0.3 0.4-0.45 0.967-0.45 1.7v0 27.6c0 0.733 0.15 1.3 0.45 1.7 0.3 0.4 0.95 0.6 1.95 0.6v0zM127.05-1.4v1.4h-12.7v-1.4h1.6c0.733 0 1.283-0.127 1.65-0.38 0.367-0.247 0.583-0.503 0.65-0.77 0.067-0.267 0.1-0.65 0.1-1.15v0-13.4h-19.4v13.4c0 0.733 0.15 1.3 0.45 1.7 0.3 0.4 0.95 0.6 1.95 0.6v0h1.9v1.4h-12.7v-1.4h1.7c1 0 1.65-0.2 1.95-0.6 0.3-0.4 0.45-0.967 0.45-1.7v0-27.6c0-0.733-0.15-1.3-0.45-1.7-0.3-0.4-0.95-0.6-1.95-0.6v0h-1.7v-1.4h12.7v1.4h-1.9c-1 0-1.65 0.2-1.95 0.6-0.3 0.4-0.45 0.967-0.45 1.7v0 12h19.4v-12c0-0.5-0.033-0.883-0.1-1.15-0.067-0.267-0.283-0.527-0.65-0.78-0.367-0.247-0.917-0.37-1.65-0.37v0h-1.6v-1.4h12.7v1.4h-1.9c-0.733 0-1.283 0.123-1.65 0.37-0.367 0.253-0.583 0.513-0.65 0.78-0.067 0.267-0.1 0.65-0.1 1.15v0 27.6c0 0.5 0.033 0.883 0.1 1.15 0.067 0.267 0.283 0.523 0.65 0.77 0.367 0.253 0.917 0.38 1.65 0.38v0zM165.1-1.4v1.4h-12.8v-1.4h1.6c1.467 0 2.2-0.467 2.2-1.4v0c0-0.133-0.167-0.7-0.5-1.7v0l-3.4-8.9h-12.6l-3.3 8.5c0 0.067-0.117 0.473-0.35 1.22-0.233 0.753-0.35 1.27-0.35 1.55 0 0.287 0.183 0.48 0.55 0.58 0.367 0.1 1.15 0.15 2.35 0.15v0h0.8v1.4h-9.8v-1.4h0.7c1.1 0 1.9-0.193 2.4-0.58 0.5-0.38 0.933-1.02 1.3-1.92v0l11-28.7c0.167-0.033 0.467-0.277 0.9-0.73 0.433-0.447 0.833-0.913 1.2-1.4 0.367-0.48 0.55-0.753 0.55-0.82 0-0.067-0.017-0.117-0.05-0.15v0l0.7-0.2 12.3 32.2c0.367 0.767 0.743 1.34 1.13 1.72 0.38 0.387 0.937 0.58 1.67 0.58v0zM140.4-15.5h10.9l-5.4-14.3zM196.7 0.8v0l-22.1-29.6v25.1c0 1.467 1.033 2.2 3.1 2.2v0h1.9v1.5h-12v-1.5h1.6c2.067 0 3.1-0.733 3.1-2.2v0-27.6c0-1.467-1.033-2.2-3.1-2.2v0h-1.6v-1.5h7.9l20.6 27.7v-24c0-1.467-1-2.2-3-2.2v0h-1.7v-1.5h12v1.5h-1.9c-2.067 0-3.1 0.733-3.1 2.2v0 31.1c-0.367 0-0.757 0.16-1.17 0.48-0.42 0.313-0.597 0.487-0.53 0.52zM227.2-1.4v1.4h-13v-1.4h2c1 0 1.633-0.193 1.9-0.58 0.267-0.38 0.4-0.92 0.4-1.62v0-27c0-0.5-0.033-0.893-0.1-1.18-0.067-0.28-0.273-0.537-0.62-0.77-0.353-0.233-0.88-0.35-1.58-0.35v0h-3c-1.767 0-3.123 0.54-4.07 1.62-0.953 1.087-1.463 2.247-1.53 3.48v0l-1.4-0.3 0.5-6.9h28.1l0.5 6.9-1.4 0.3c-0.067-1.2-0.583-2.35-1.55-3.45-0.967-1.1-2.317-1.65-4.05-1.65v0h-3c-0.733 0-1.283 0.127-1.65 0.38-0.367 0.247-0.583 0.503-0.65 0.77-0.067 0.267-0.1 0.65-0.1 1.15v0 27c0 0.467 0.033 0.833 0.1 1.1 0.067 0.267 0.283 0.517 0.65 0.75 0.367 0.233 0.917 0.35 1.65 0.35v0z" fill="#ffffff" fill-rule="nonzero" stroke="none" stroke-width="1" stroke-linecap="butt" stroke-linejoin="miter" stroke-miterlimit="10" stroke-dasharray="" stroke-dashoffset="0" font-family="none" font-weight="none" font-size="none" text-anchor="none" style="mix-blend-mode: normal" data-fill-palette-color="quaternary" opacity="1"></path><path xmlns="http://www.w3.org/2000/svg" d="M36.05 38.5v1.4h-12.8v-1.4h1.6c1.467 0 2.2-0.467 2.2-1.4v0c0-0.133-0.167-0.7-0.5-1.7v0l-3.4-8.9h-12.6l-3.3 8.5c0 0.067-0.117 0.473-0.35 1.22-0.233 0.753-0.35 1.27-0.35 1.55 0 0.287 0.183 0.48 0.55 0.58 0.367 0.1 1.15 0.15 2.35 0.15v0h0.8v1.4h-9.8v-1.4h0.7c1.1 0 1.9-0.193 2.4-0.58 0.5-0.38 0.933-1.02 1.3-1.92v0l11-28.7c0.167-0.033 0.467-0.277 0.9-0.73 0.433-0.447 0.833-0.913 1.2-1.4 0.367-0.48 0.55-0.753 0.55-0.82 0-0.067-0.017-0.117-0.05-0.15v0l0.7-0.2 12.3 32.2c0.367 0.767 0.743 1.34 1.13 1.72 0.38 0.387 0.937 0.58 1.67 0.58v0zM11.35 24.4h10.9l-5.4-14.3zM38.55 4.9h7.7l9.5-0.5c2.933 0 5.333 0.617 7.2 1.85 1.867 1.233 2.8 2.917 2.8 5.05v0c0 2.967-0.8 5.383-2.4 7.25-1.6 1.867-3.567 3.283-5.9 4.25v0l8.1 12.2c0.333 0.533 0.977 1.25 1.93 2.15 0.947 0.9 1.803 1.35 2.57 1.35v0h0.9v1.4h-7.4c0.1 0-0.217-0.5-0.95-1.5-0.733-1-1.15-1.6-1.25-1.8v0l-8.3-12.8c-0.333 0.067-1 0.1-2 0.1-1 0-1.8-0.033-2.4-0.1v0l-0.4-2c0.467 0.067 1.467 0.1 3 0.1 1.533 0 3.067-0.2 4.6-0.6 1.533-0.4 2.883-1.16 4.05-2.28 1.167-1.113 1.75-2.553 1.75-4.32v0c0-4.933-3.167-7.4-9.5-7.4v0l-5.2 0.2v28.7c0 0.5 0.033 0.883 0.1 1.15 0.067 0.267 0.283 0.523 0.65 0.77 0.367 0.253 0.917 0.38 1.65 0.38v0h1.9v1.4h-12.7v-1.4h1.6c0.733 0 1.283-0.127 1.65-0.38 0.367-0.247 0.583-0.503 0.65-0.77 0.067-0.267 0.1-0.65 0.1-1.15v0-27.6c0-0.767-0.157-1.327-0.47-1.68-0.32-0.347-0.963-0.52-1.93-0.52v0h-1.6zM92.05 38.5v1.4h-13v-1.4h2c1 0 1.633-0.193 1.9-0.58 0.267-0.38 0.4-0.92 0.4-1.62v0-27c0-0.5-0.033-0.893-0.1-1.18-0.067-0.28-0.273-0.537-0.62-0.77-0.353-0.233-0.88-0.35-1.58-0.35v0h-3c-1.767 0-3.123 0.54-4.07 1.62-0.953 1.087-1.463 2.247-1.53 3.48v0l-1.4-0.3 0.5-6.9h28.1l0.5 6.9-1.4 0.3c-0.067-1.2-0.583-2.35-1.55-3.45-0.967-1.1-2.317-1.65-4.05-1.65v0h-3c-0.733 0-1.283 0.127-1.65 0.38-0.367 0.247-0.583 0.503-0.65 0.77-0.067 0.267-0.1 0.65-0.1 1.15v0 27c0 0.467 0.033 0.833 0.1 1.1 0.067 0.267 0.283 0.517 0.65 0.75 0.367 0.233 0.917 0.35 1.65 0.35v0z" fill="#ffffff" fill-rule="nonzero" stroke="none" stroke-width="1" stroke-linecap="butt" stroke-linejoin="miter" stroke-miterlimit="10" stroke-dasharray="" stroke-dashoffset="0" font-family="none" font-weight="none" font-size="none" text-anchor="none" style="mix-blend-mode: normal" data-fill-palette-color="quaternary" opacity="1"></path><path xmlns="http://www.w3.org/2000/svg" d="M30.5 72.9l-1.7 6.9h-26.8v-1.4h1.7c0.967 0 1.61-0.183 1.93-0.55 0.313-0.367 0.47-0.95 0.47-1.75v0-27.6c0-0.667-0.207-1.217-0.62-1.65-0.42-0.433-1.013-0.65-1.78-0.65v0h-1.7v-1.4h26.4l0.4 6.9-1.4 0.3c0-1.2-0.483-2.35-1.45-3.45-0.967-1.1-2.317-1.65-4.05-1.65v0h-9.1c-1 0-1.65 0.19-1.95 0.57-0.3 0.387-0.45 0.93-0.45 1.63v0 11.4h10c0.5 0 0.883-0.027 1.15-0.08 0.267-0.047 0.51-0.22 0.73-0.52 0.213-0.3 0.32-0.733 0.32-1.3v0-2.3h1.5v10.4h-1.5v-2.1c0-0.833-0.183-1.373-0.55-1.62-0.367-0.253-0.917-0.38-1.65-0.38v0h-10v12.9c0 0.7 0.15 1.24 0.45 1.62 0.3 0.387 0.95 0.58 1.95 0.58v0h9.5c1.767 0 3.327-0.567 4.68-1.7 1.347-1.133 2.053-2.233 2.12-3.3v0zM65.5 78.4v1.4h-11.4v-1.4h0.5c0.533 0 0.8-0.143 0.8-0.43 0-0.28-0.433-1.237-1.3-2.87v0l-5.7-11.4-6 11.4c-0.8 1.6-1.2 2.5-1.2 2.7v0c0 0.4 0.5 0.6 1.5 0.6v0h1.3v1.4h-11.2v-1.4h1.9c2.333 0 4.167-1.233 5.5-3.7v0l7-12.9-6.7-12c-1.4-2.4-3-3.6-4.8-3.6v0h-1.3v-1.4h11.4v1.4h-0.8c-0.467 0-0.7 0.15-0.7 0.45 0 0.3 0.233 0.917 0.7 1.85v0l4.9 9.3 3.9-7.5c1-2 1.5-3.183 1.5-3.55 0-0.367-0.5-0.55-1.5-0.55v0h-1.2v-1.4h11.2v1.4h-1.9c-2.4 0-4.267 1.233-5.6 3.7v0l-5.1 9.8 7.9 14.8c1.4 2.6 3.1 3.9 5.1 3.9v0zM78.4 64.1l-0.4-2 2.4 0.1c2.5 0 4.8-0.4 6.9-1.2v0c1.233-0.467 2.227-1.2 2.98-2.2 0.747-1 1.12-2.233 1.12-3.7v0c0-5.267-3.167-7.9-9.5-7.9v0l-5.2 0.2v28.8c0 0.467 0.033 0.833 0.1 1.1 0.067 0.267 0.283 0.517 0.65 0.75 0.367 0.233 0.917 0.35 1.65 0.35v0h1.9v1.4h-12.7v-1.4h1.6c0.733 0 1.283-0.117 1.65-0.35 0.367-0.233 0.583-0.483 0.65-0.75 0.067-0.267 0.1-0.633 0.1-1.1v0-27.7c0-0.767-0.157-1.327-0.47-1.68-0.32-0.347-0.963-0.52-1.93-0.52v0h-1.6v-1.5h7.7l9.5-0.5c3 0 5.417 0.65 7.25 1.95 1.833 1.3 2.75 3.123 2.75 5.47 0 2.353-0.54 4.403-1.62 6.15-1.087 1.753-2.43 3.063-4.03 3.93v0c-3.033 1.6-5.75 2.4-8.15 2.4v0c-1.4 0-2.5-0.033-3.3-0.1zM113.6 80.8v0c-4.367 0-8.007-1.683-10.92-5.05-2.92-3.367-4.38-7.25-4.38-11.65v0c0-2.733 0.6-5.367 1.8-7.9 1.2-2.533 2.743-4.683 4.63-6.45 1.88-1.767 3.963-3.183 6.25-4.25 2.28-1.067 4.487-1.6 6.62-1.6v0c4.333 0 7.967 1.683 10.9 5.05 2.933 3.367 4.4 7.25 4.4 11.65v0c0 3.267-0.883 6.457-2.65 9.57-1.767 3.12-4.157 5.67-7.17 7.65-3.02 1.987-6.18 2.98-9.48 2.98zM116.7 77v0c3.633 0 6.693-1.333 9.18-4 2.48-2.667 3.72-5.967 3.72-9.9 0-3.933-1.44-7.467-4.32-10.6-2.887-3.133-6.38-4.7-10.48-4.7v0c-3.5 0-6.573 1.257-9.22 3.77-2.653 2.52-3.98 5.53-3.98 9.03v0c0 4.533 1.393 8.4 4.18 11.6 2.78 3.2 6.42 4.8 10.92 4.8zM136.7 44.8h7.7l9.5-0.5c2.933 0 5.333 0.617 7.2 1.85 1.867 1.233 2.8 2.917 2.8 5.05v0c0 2.967-0.8 5.383-2.4 7.25-1.6 1.867-3.567 3.283-5.9 4.25v0l8.1 12.2c0.333 0.533 0.977 1.25 1.93 2.15 0.947 0.9 1.803 1.35 2.57 1.35v0h0.9v1.4h-7.4c0.1 0-0.217-0.5-0.95-1.5-0.733-1-1.15-1.6-1.25-1.8v0l-8.3-12.8c-0.333 0.067-1 0.1-2 0.1-1 0-1.8-0.033-2.4-0.1v0l-0.4-2c0.467 0.067 1.467 0.1 3 0.1 1.533 0 3.067-0.2 4.6-0.6 1.533-0.4 2.883-1.16 4.05-2.28 1.167-1.113 1.75-2.553 1.75-4.32v0c0-4.933-3.167-7.4-9.5-7.4v0l-5.2 0.2v28.7c0 0.5 0.033 0.883 0.1 1.15 0.067 0.267 0.283 0.523 0.65 0.77 0.367 0.253 0.917 0.38 1.65 0.38v0h1.9v1.4h-12.7v-1.4h1.6c0.733 0 1.283-0.127 1.65-0.38 0.367-0.247 0.583-0.503 0.65-0.77 0.067-0.267 0.1-0.65 0.1-1.15v0-27.6c0-0.767-0.157-1.327-0.47-1.68-0.32-0.347-0.963-0.52-1.93-0.52v0h-1.6zM190.2 78.4v1.4h-13v-1.4h2c1 0 1.633-0.193 1.9-0.58 0.267-0.38 0.4-0.92 0.4-1.62v0-27c0-0.5-0.033-0.893-0.1-1.18-0.067-0.28-0.273-0.537-0.62-0.77-0.353-0.233-0.88-0.35-1.58-0.35v0h-3c-1.767 0-3.123 0.54-4.07 1.62-0.953 1.087-1.463 2.247-1.53 3.48v0l-1.4-0.3 0.5-6.9h28.1l0.5 6.9-1.4 0.3c-0.067-1.2-0.583-2.35-1.55-3.45-0.967-1.1-2.317-1.65-4.05-1.65v0h-3c-0.733 0-1.283 0.127-1.65 0.38-0.367 0.247-0.583 0.503-0.65 0.77-0.067 0.267-0.1 0.65-0.1 1.15v0 27c0 0.467 0.033 0.833 0.1 1.1 0.067 0.267 0.283 0.517 0.65 0.75 0.367 0.233 0.917 0.35 1.65 0.35v0zM200.5 77.4v0l0.7-6.5 1.7 0.1c0 1.833 1.093 3.307 3.28 4.42 2.18 1.12 4.663 1.68 7.45 1.68 2.78 0 4.87-0.427 6.27-1.28 1.4-0.847 2.1-1.92 2.1-3.22v0c0-2.2-1.167-4.167-3.5-5.9v0c-0.967-0.7-1.983-1.317-3.05-1.85v0c-2.433-1.267-3.957-2.077-4.57-2.43-0.62-0.347-1.313-0.703-2.08-1.07-0.767-0.367-1.473-0.76-2.12-1.18-0.653-0.413-1.347-0.92-2.08-1.52v0c-1.667-1.333-2.5-2.827-2.5-4.48 0-1.647 0.293-3.087 0.88-4.32 0.58-1.233 1.313-2.2 2.2-2.9 0.88-0.7 1.92-1.283 3.12-1.75v0c2.033-0.733 4.31-1.1 6.83-1.1 2.513 0 4.937 0.633 7.27 1.9v0l-0.6 5.8h-1.7c0-3.133-2.633-4.7-7.9-4.7v0c-2.433 0-4.257 0.383-5.47 1.15-1.22 0.767-1.83 1.817-1.83 3.15v0c0 2.133 3.467 4.7 10.4 7.7v0c4.567 1.967 7.483 4.15 8.75 6.55v0c0.633 1.2 0.95 2.517 0.95 3.95v0c0 3.467-1.39 6.15-4.17 8.05-2.787 1.9-6.147 2.85-10.08 2.85-3.933 0-7.35-1.033-10.25-3.1z" fill="#ffffff" fill-rule="nonzero" stroke="none" stroke-width="1" stroke-linecap="butt" stroke-linejoin="miter" stroke-miterlimit="10" stroke-dasharray="" stroke-dashoffset="0" font-family="none" font-weight="none" font-size="none" text-anchor="none" style="mix-blend-mode: normal" data-fill-palette-color="quaternary" opacity="1"></path></g></svg></g></svg></g></svg></g></svg></g><g transform="matrix(1,0,0,1,0,0.26095976154991973)"><svg viewBox="0 0 106.27020336472022 104.38390461997018" height="104.38390461997018" width="106.27020336472022"><g><svg xmlns="http://www.w3.org/2000/svg" xmlns:xlink="http://www.w3.org/1999/xlink" version="1.1" x="0" y="0" viewBox="0 0.42600002884864807 48 47.14799880981445" enable-background="new 0 0 48 48" xml:space="preserve" height="104.38390461997018" width="106.27020336472022" class="icon-icon-0" data-fill-palette-color="quaternary" id="icon-0"><g fill="#ffffff" data-fill-palette-color="quaternary"><path d="M19.26 33.73H8.83c-0.776 0-1.406 0.629-1.406 1.406v11.031c0 0.777 0.63 1.406 1.406 1.406s1.406-0.629 1.406-1.406v-9.625h7.617v9.625c0 0.777 0.63 1.406 1.406 1.406s1.406-0.629 1.406-1.406V35.137C20.666 34.359 20.036 33.73 19.26 33.73z" fill="#ffffff" data-fill-palette-color="quaternary"></path><path d="M42.376 0.426H37.28v32.671H48V6.05C48 2.949 45.478 0.426 42.376 0.426zM40.909 18.499c0 0.518-0.419 0.937-0.938 0.937-0.518 0-0.938-0.419-0.938-0.937v-3.396c0-0.518 0.42-0.937 0.938-0.937 0.519 0 0.938 0.419 0.938 0.937V18.499z" fill="#ffffff" data-fill-palette-color="quaternary"></path><path d="M24.688 33.098h10.718V0.426h-5.094c-3.102 0-5.624 2.522-5.624 5.624v18.252H13.703c0.152-0.226 0.242-0.497 0.242-0.789 0-0.777-0.63-1.406-1.406-1.406h-1.853v-3.285h3.828c0.283 0 0.551-0.128 0.729-0.348 0.178-0.22 0.246-0.509 0.187-0.786l-1.874-8.714c-0.093-0.432-0.475-0.74-0.917-0.74H5.919c-0.442 0-0.824 0.309-0.916 0.74l-1.875 8.714c-0.06 0.277 0.009 0.566 0.187 0.786 0.179 0.22 0.447 0.348 0.729 0.348h3.83v3.285H6.02c-0.776 0-1.406 0.629-1.406 1.406 0 0.292 0.09 0.563 0.243 0.789h-3.45C0.63 24.303 0 24.932 0 25.709v20.459c0 0.777 0.63 1.406 1.406 1.406s1.406-0.629 1.406-1.406V27.115h21.876V33.098zM31.532 15.104c0-0.518 0.419-0.937 0.938-0.937 0.518 0 0.937 0.419 0.937 0.937v3.396c0 0.518-0.419 0.937-0.937 0.937-0.519 0-0.938-0.419-0.938-0.937V15.104z" fill="#ffffff" data-fill-palette-color="quaternary"></path><path d="M24.688 37.943v0.139 8.086c0 0.777 0.63 1.406 1.406 1.406s1.405-0.629 1.405-1.406v-3.223c0.829 0.48 1.787 0.76 2.813 0.76h12.063c1.025 0 1.983-0.279 2.812-0.76v3.223c0 0.777 0.63 1.406 1.406 1.406S48 46.945 48 46.168v-8.086-0.139-2.971H24.688V37.943z" fill="#ffffff" data-fill-palette-color="quaternary"></path></g></svg></g></svg></g></svg></g></svg></g></svg></g><defs></defs></svg><rect width="512" height="320" fill="none" stroke="none" visibility="hidden"></rect></g></svg></g></svg>